<svg xmlns="http://www.w3.org/2000/svg" viewBox="0 0 60 60" width="60" height="60">
  <rect x="0" y="0" width="60" height="60" fill="white"/>
  <!-- Top-left position detection pattern -->
  <rect x="4" y="4" width="16" height="16" fill="black"/>
  <rect x="7" y="7" width="10" height="10" fill="white"/>
  <rect x="9" y="9" width="6" height="6" fill="black"/>
  
  <!-- Top-right position detection pattern -->
  <rect x="40" y="4" width="16" height="16" fill="black"/>
  <rect x="43" y="7" width="10" height="10" fill="white"/>
  <rect x="45" y="9" width="6" height="6" fill="black"/>
  
  <!-- Bottom-left position detection pattern -->
  <rect x="4" y="40" width="16" height="16" fill="black"/>
  <rect x="7" y="43" width="10" height="10" fill="white"/>
  <rect x="9" y="45" width="6" height="6" fill="black"/>
  
  <!-- Timing patterns -->
  <rect x="22" y="6" width="2" height="2" fill="black"/>
  <rect x="26" y="6" width="2" height="2" fill="black"/>
  <rect x="30" y="6" width="2" height="2" fill="black"/>
  <rect x="34" y="6" width="2" height="2" fill="black"/>
  
  <rect x="6" y="22" width="2" height="2" fill="black"/>
  <rect x="6" y="26" width="2" height="2" fill="black"/>
  <rect x="6" y="30" width="2" height="2" fill="black"/>
  <rect x="6" y="34" width="2" height="2" fill="black"/>
  
  <!-- Data modules -->
  <rect x="22" y="22" width="4" height="4" fill="black"/>
  <rect x="28" y="22" width="4" height="4" fill="white"/>
  <rect x="34" y="22" width="4" height="4" fill="black"/>
  <rect x="40" y="22" width="4" height="4" fill="white"/>
  <rect x="46" y="22" width="4" height="4" fill="black"/>
  
  <rect x="22" y="28" width="4" height="4" fill="white"/>
  <rect x="28" y="28" width="4" height="4" fill="black"/>
  <rect x="34" y="28" width="4" height="4" fill="white"/>
  <rect x="40" y="28" width="4" height="4" fill="black"/>
  <rect x="46" y="28" width="4" height="4" fill="white"/>
  
  <rect x="22" y="34" width="4" height="4" fill="black"/>
  <rect x="28" y="34" width="4" height="4" fill="white"/>
  <rect x="34" y="34" width="4" height="4" fill="black"/>
  <rect x="40" y="34" width="4" height="4" fill="white"/>
  <rect x="46" y="34" width="4" height="4" fill="black"/>
  
  <rect x="22" y="40" width="4" height="4" fill="white"/>
  <rect x="28" y="40" width="4" height="4" fill="black"/>
  <rect x="34" y="40" width="4" height="4" fill="white"/>
  <rect x="40" y="40" width="4" height="4" fill="black"/>
  <rect x="46" y="40" width="4" height="4" fill="white"/>
  
  <rect x="22" y="46" width="4" height="4" fill="black"/>
  <rect x="28" y="46" width="4" height="4" fill="white"/>
  <rect x="34" y="46" width="4" height="4" fill="black"/>
  <rect x="40" y="46" width="4" height="4" fill="white"/>
  <rect x="46" y="46" width="4" height="4" fill="black"/>
  
  <!-- Additional data modules for visual balance -->
  <rect x="24" y="14" width="2" height="2" fill="black"/>
  <rect x="30" y="14" width="2" height="2" fill="white"/>
  <rect x="36" y="14" width="2" height="2" fill="black"/>
  
  <rect x="14" y="24" width="2" height="2" fill="white"/>
  <rect x="14" y="30" width="2" height="2" fill="black"/>
  <rect x="14" y="36" width="2" height="2" fill="white"/>
  
  <rect x="52" y="24" width="2" height="2" fill="black"/>
  <rect x="52" y="30" width="2" height="2" fill="white"/>
  <rect x="52" y="36" width="2" height="2" fill="black"/>
  
  <rect x="24" y="52" width="2" height="2" fill="white"/>
  <rect x="30" y="52" width="2" height="2" fill="black"/>
  <rect x="36" y="52" width="2" height="2" fill="white"/>
</svg>